<svg xmlns="http://www.w3.org/2000/svg" width="64" height="64"><path d="M32 0a32 32 0 1032 32A32 32 0 0032 0zm0 62a30 30 0 1130-30 30 30 0 01-30 30zm1-30a1 1 0 10-1 1 1 1 0 001-1zm3.931.688A4.71 4.71 0 0035 28.022V14a3 3 0 00-6 0v14.022A4.985 4.985 0 0032 37a4.86 4.86 0 00.687-.07l8.5 8.506a3 3 0 004.243-4.244zM31 14a1 1 0 012 0v13.1a5 5 0 00-2 0V14zm-2 18a3 3 0 113 3 3 3 0 01-3-3zm15.02 12.02a1 1 0 01-1.414 0l-7.852-7.853a5.018 5.018 0 001.415-1.415l7.851 7.852a1 1 0 010 1.416zM32 4a28 28 0 1028 28A28 28 0 0032 4zm19.075 45.66l-2.1-2.1a1 1 0 10-1.415 1.415l2.1 2.1a25.888 25.888 0 01-16.66 6.9V55a1 1 0 00-2 0v2.973a25.891 25.891 0 01-16.66-6.9l2.1-2.1a1 1 0 00-1.414-1.414l-2.1 2.1a25.9 25.9 0 01-6.9-16.66H9a1 1 0 000-2H6.026a25.9 25.9 0 016.9-16.661l2.1 2.1a1 1 0 001.414-1.414l-2.1-2.1a25.892 25.892 0 0116.661-6.9V9a1 1 0 002 0V6.025a25.891 25.891 0 0116.661 6.9l-2.1 2.1a1 1 0 001.414 1.415l2.1-2.1a25.9 25.9 0 016.9 16.661H55a1 1 0 000 2h2.975a25.893 25.893 0 01-6.9 16.659z" fill="#ba271f" fill-rule="evenodd"/></svg>