<svg xmlns="http://www.w3.org/2000/svg" width="64" height="64"><path d="M32 0a32 32 0 1032 32A32 32 0 0032 0zm17.972 31a39.822 39.822 0 00-3.614-15.67 39.54 39.54 0 007.515-3.85 29.888 29.888 0 018.1 19.52h-12zM33.333 61.97H33V50.04a38.032 38.032 0 019.606 1.46 38.315 38.315 0 01-9.273 10.47zm11.216-9.83a37.834 37.834 0 016.523 3.02 29.926 29.926 0 01-14.178 6.44 40.363 40.363 0 007.655-9.46zm-23.155-.64A38.025 38.025 0 0131 50.04v11.93h-.333a38.3 38.3 0 01-9.273-10.47zm5.712 10.1a29.926 29.926 0 01-14.178-6.44 37.834 37.834 0 016.523-3.02 40.338 40.338 0 007.655 9.46zM2.025 31a29.888 29.888 0 018.1-19.52 39.54 39.54 0 007.515 3.85A39.822 39.822 0 0014.026 31h-12zM43.57 14.2A37.659 37.659 0 0133 15.96V2.03h.333A38.126 38.126 0 0143.57 14.2zM36.894 2.4a29.9 29.9 0 0115.521 7.63 37.9 37.9 0 01-6.944 3.5A40.19 40.19 0 0036.894 2.4zM31 2.03v13.93a37.659 37.659 0 01-10.57-1.76A38.126 38.126 0 0130.667 2.03H31zm-12.471 11.5a37.9 37.9 0 01-6.944-3.5A29.9 29.9 0 0127.106 2.4a40.19 40.19 0 00-8.577 11.13zm1 2.48A39.881 39.881 0 0031 17.98V31H16.031a37.73 37.73 0 013.501-14.99zM31 33v15.04a39.569 39.569 0 00-10.615 1.69A37.79 37.79 0 0116.031 33H31zm2 15.04V33h14.969a37.8 37.8 0 01-4.354 16.73A39.569 39.569 0 0033 48.04zM33 31V17.98a39.881 39.881 0 0011.468-1.97 37.73 37.73 0 013.5 14.99H33zM2.025 33h12a39.79 39.79 0 004.448 17.37 39.405 39.405 0 00-7.11 3.4A29.932 29.932 0 012.025 33zm50.609 20.77a39.437 39.437 0 00-7.11-3.4A39.79 39.79 0 0049.972 33h12a29.932 29.932 0 01-9.338 20.77z" fill="#ba271f" fill-rule="evenodd"/></svg>