<svg xmlns="http://www.w3.org/2000/svg" width="64" height="64"><path d="M62.24 47.76l.02-.02a47.933 47.933 0 00-20.5-9.72A13.945 13.945 0 0046 28a3 3 0 003-3v-2a2.97 2.97 0 00-1-2.22V12A12 12 0 0036 0h-8a12 12 0 00-12 12v8.78A2.97 2.97 0 0015 23v2a3 3 0 003 3 13.945 13.945 0 004.24 10.02 47.933 47.933 0 00-20.5 9.72l.02.02A5.944 5.944 0 000 52v8a4 4 0 004 4h56a4 4 0 004-4v-8a5.944 5.944 0 00-1.76-4.24zM18 12A10 10 0 0128 2h8a10 10 0 0110 10v7a6 6 0 00-6-6h-6a4 4 0 01-4-4 1 1 0 00-2 0 4 4 0 01-4 4 6 6 0 00-6 6v-7zm2 16v-1a1 1 0 00-1-1h-1a1 1 0 01-1-1v-2a1 1 0 011-1h1a1 1 0 001-1v-2a4 4 0 014-4 5.992 5.992 0 0110 0h6a4 4 0 014 4v2a1 1 0 001 1h1a1 1 0 011 1v2a1 1 0 01-1 1h-1a1 1 0 00-1 1v1a12 12 0 01-24 0zm12 14a13.947 13.947 0 007.71-2.32 46.935 46.935 0 014.9 1.08 17.853 17.853 0 01-25.26.01 47.14 47.14 0 014.94-1.09A13.947 13.947 0 0032 42zm30 18a2.006 2.006 0 01-2 2H4a2.006 2.006 0 01-2-2v-8a4.025 4.025 0 011.17-2.83 45.987 45.987 0 0114.04-7.72 19.906 19.906 0 0029.53-.01 45.94 45.94 0 0114.09 7.73A4.025 4.025 0 0162 52v8zM24.54 21.86a1.009 1.009 0 001.34-.39A1.225 1.225 0 0127 21a1.284 1.284 0 011.11.46A1.012 1.012 0 0029 22a1.107 1.107 0 00.46-.11 1.006 1.006 0 00.43-1.35A3.233 3.233 0 0027 19a3.16 3.16 0 00-2.9 1.56.97.97 0 00.44 1.3zm10 0a1.009 1.009 0 001.34-.39A1.225 1.225 0 0137 21a1.264 1.264 0 011.11.46A1.012 1.012 0 0039 22a1.072 1.072 0 00.46-.11 1.006 1.006 0 00.43-1.35A3.233 3.233 0 0037 19a3.16 3.16 0 00-2.9 1.56.987.987 0 00.44 1.3z" fill="#ba271f" fill-rule="evenodd"/></svg>